# xmcd
#
# Track frame offsets:
#	150
#	22917
#	46530
#	70315
#	106820
#	127704
#	150945
#	167797
#	178817
#	195267
#
# Disc length: 2753 seconds
#
# Revision: 0
# Processed by: cddbd v1.4PL0 Copyright (c) Steve Scherf et al.
# Submitted via: dBpowerAMP V4.0
#
DISCID=690abf0a
DTITLE=The Sue Conway Victory Singers - Sing Unto The Lord
DYEAR=1900
DGENRE=Gospel
TTITLE0=This Little Light Of Mine
TTITLE1=Amanzing Grace
TTITLE2=Sing Unto The Lord
TTITLE3=What A Friend
TTITLE4=He's Got The Whole World
TTITLE5=Deep River
TTITLE6=It Is Well
TTITLE7=In The Name Of Jesus
TTITLE8=Step Into The Light
TTITLE9=Amen
EXTD=
EXTT0=
EXTT1=
EXTT2=
EXTT3=
EXTT4=
EXTT5=
EXTT6=
EXTT7=
EXTT8=
EXTT9=
PLAYORDER=
